<svg xmlns="http://www.w3.org/2000/svg" viewBox="0 0 479.991 479.991">
  <g fill="#78b9eb">
    <path d="M112.555 219.031l23.44-43.04-39.76-32.24a143.413 143.413 0 0 0 5.44 48.24 139.584 139.584 0 0 0 10.88 27.04zM199.115 290.071c4.48 1.28 9.04 2.4 13.68 3.28a141.441 141.441 0 0 0 54.4 0c4.64-.88 9.2-2 13.68-3.28l-40.88-34.08-40.88 34.08zM358.796 70.711a143.137 143.137 0 0 0-57.44-48.96l10.64 50.24 46.8-1.28zM367.436 219.031a139.52 139.52 0 0 0 10.88-27.04 143.413 143.413 0 0 0 5.44-48.24l-39.76 32.24 23.44 43.04zM287.996 167.991l-16-56h-64l-16 56 48 40 48-40zM178.635 21.751a143.137 143.137 0 0 0-57.44 48.96l46.8 1.28 10.64-50.24z"/>
  </g>
  <g fill="#1e81ce">
    <path d="M391.74 143.287a151.39 151.39 0 0 0-5.728-33.488 147.534 147.534 0 0 0-20.592-43.576 151.206 151.206 0 0 0-60.624-51.712 148.742 148.742 0 0 0-36-11.72c-59.425-11.55-120.025 13.362-154.144 63.368v.048a147.701 147.701 0 0 0-20.656 43.544 151.441 151.441 0 0 0-5.744 33.52c-.176 2.88-.256 5.752-.256 8.72v240h16V219.575c.512 1.024.928 2.144 1.464 3.152a151.681 151.681 0 0 0 28.64 38.28 150.002 150.002 0 0 0 17.896 14.792v76.192h16v-66.248c9.204 4.979 18.895 9 28.92 12 5.048 1.448 9.752 2.568 14.312 3.432a144.779 144.779 0 0 0 20.8 2.4v128.416h16V303.607a144.968 144.968 0 0 0 20.688-2.4c4.64-.88 9.344-2 14.472-3.472a151.74 151.74 0 0 0 28.8-12v66.256h16v-76.192a149.891 149.891 0 0 0 46.504-53.008c.552-1.032.968-2.168 1.496-3.2v172.4h16v-240c.007-2.968-.073-5.84-.248-8.704zm-21.105-29.056a134.944 134.944 0 0 1 4.688 26.064l-33.656 27.28-47.408-6.784-13.28-46.488 34.4-34.4 39.08-1.072a131.43 131.43 0 0 1 16.176 35.4zm-130.64 152.16l23.32 19.44a133.922 133.922 0 0 1-46.64 0l23.32-19.44zm0-68.8l-38.872-32.4 12.904-45.2h51.936l12.904 45.184-38.872 32.416zm102.816-134.4l-24.368.672-5.6-26.528a134.502 134.502 0 0 1 21.904 17.144c2.848 2.76 5.496 5.688 8.064 8.664v.048zM214.395 18.479a133.352 133.352 0 0 1 51.36 0 132.521 132.521 0 0 1 28.64 8.968l8.888 41.96-34.6 34.584h-57.376l-34.584-34.584 8.872-41.96a132.255 132.255 0 0 1 28.8-8.968zm-59.48 27.496c1.032-.8 2.104-1.6 3.2-2.4 2.4-1.808 4.8-3.552 7.328-5.192.584-.384 1.176-.744 1.768-1.112l-5.6 26.528-24.376-.672c2.568-2.968 5.216-5.896 8.08-8.696 3.016-2.984 6.264-5.776 9.6-8.456zm-29.4 32.856l39.08 1.072 34.4 34.4-13.264 46.488-47.408 6.768-33.648-27.28c.7-8.838 2.273-17.584 4.696-26.112a131.524 131.524 0 0 1 16.144-35.336zm-21.216 81.76l21.488 17.416-12.552 23.04c-1.416-3.68-2.76-7.416-3.88-11.28a136.307 136.307 0 0 1-5.056-29.176zm17.424 58.336l19.384-35.584 48.496-6.928 42.392 35.32v40.512l-34.592 28.84a134.934 134.934 0 0 1-75.68-62.16zm213.017 30.608a136.79 136.79 0 0 1-52.152 31.552l-34.592-28.84v-40.512l42.4-35.32 48.496 6.928 19.392 35.592a136.313 136.313 0 0 1-23.544 30.6zm35.888-59.76c-1.112 3.856-2.456 7.592-3.872 11.272l-12.552-23.04 21.488-17.416a135.937 135.937 0 0 1-5.064 29.184zM231.995 447.991h16v32h-16v-32zM375.996 407.991h16v32h-16v-32zM87.995 407.991h16v32h-16v-32z"/>
    <path d="M311.996 367.991h16v16h-16v-16zM311.996 399.991h16v32h-16v-32zM151.995 367.991h16v16h-16v-16zM151.995 399.991h16v32h-16v-32zM375.996 455.991h16v16h-16v-16zM87.995 455.991h16v16h-16v-16z"/>
  </g>
</svg>
